<?xml version="1.0" standalone="no"?><svg xmlns="http://www.w3.org/2000/svg" viewBox="0 0 1440 320"><path fill="#fa8072" fill-opacity="1" d="M0,288L0,224L80,224L80,64L160,64L160,288L240,288L240,288L320,288L320,192L400,192L400,224L480,224L480,192L560,192L560,96L640,96L640,256L720,256L720,192L800,192L800,32L880,32L880,160L960,160L960,96L1040,96L1040,256L1120,256L1120,96L1200,96L1200,64L1280,64L1280,320L1360,320L1360,96L1440,96L1440,0L1360,0L1360,0L1280,0L1280,0L1200,0L1200,0L1120,0L1120,0L1040,0L1040,0L960,0L960,0L880,0L880,0L800,0L800,0L720,0L720,0L640,0L640,0L560,0L560,0L480,0L480,0L400,0L400,0L320,0L320,0L240,0L240,0L160,0L160,0L80,0L80,0L0,0L0,0Z"></path></svg>